<mxfile host="app.diagrams.net" modified="2020-11-22T14:10:11.952Z" agent="5.0 (Windows NT 10.0; Win64; x64) AppleWebKit/537.36 (KHTML, like Gecko) Chrome/86.0.4240.198 Safari/537.36" etag="ycKdaii2loLD9M4_XH72" version="13.10.0" type="github">
  <diagram id="prtHgNgQTEPvFCAcTncT" name="Page-1">
    <mxGraphModel dx="1038" dy="492" grid="1" gridSize="10" guides="1" tooltips="1" connect="1" arrows="1" fold="1" page="1" pageScale="1" pageWidth="827" pageHeight="1169" math="0" shadow="0">
      <root>
        <mxCell id="0" />
        <mxCell id="1" parent="0" />
        <mxCell id="LMJ_T7MVuSHcezSXWlQS-22" value="" style="rounded=1;whiteSpace=wrap;html=1;fillColor=#b1ddf0;strokeColor=#10739e;" vertex="1" parent="1">
          <mxGeometry x="100" y="320" width="550" height="100" as="geometry" />
        </mxCell>
        <mxCell id="LMJ_T7MVuSHcezSXWlQS-14" value="" style="rounded=1;whiteSpace=wrap;html=1;fillColor=#b1ddf0;strokeColor=#10739e;" vertex="1" parent="1">
          <mxGeometry x="100" y="60" width="550" height="100" as="geometry" />
        </mxCell>
        <mxCell id="LMJ_T7MVuSHcezSXWlQS-6" value="坐标转换" style="rounded=1;whiteSpace=wrap;html=1;" vertex="1" parent="1">
          <mxGeometry x="354" y="340" width="120" height="60" as="geometry" />
        </mxCell>
        <mxCell id="LMJ_T7MVuSHcezSXWlQS-7" value="图像采集" style="rounded=1;whiteSpace=wrap;html=1;" vertex="1" parent="1">
          <mxGeometry x="510" y="340" width="120" height="60" as="geometry" />
        </mxCell>
        <mxCell id="LMJ_T7MVuSHcezSXWlQS-8" value="手臂规划算法" style="rounded=1;whiteSpace=wrap;html=1;" vertex="1" parent="1">
          <mxGeometry x="160" y="80" width="120" height="60" as="geometry" />
        </mxCell>
        <mxCell id="LMJ_T7MVuSHcezSXWlQS-9" value="抓取分析算法" style="rounded=1;whiteSpace=wrap;html=1;" vertex="1" parent="1">
          <mxGeometry x="440" y="80" width="120" height="60" as="geometry" />
        </mxCell>
        <mxCell id="LMJ_T7MVuSHcezSXWlQS-15" value="&lt;font style=&quot;font-size: 15px&quot;&gt;算法层&lt;/font&gt;" style="text;html=1;strokeColor=none;fillColor=none;align=center;verticalAlign=middle;whiteSpace=wrap;rounded=0;" vertex="1" parent="1">
          <mxGeometry x="660" y="80" width="80" height="60" as="geometry" />
        </mxCell>
        <mxCell id="LMJ_T7MVuSHcezSXWlQS-16" value="" style="rounded=1;whiteSpace=wrap;html=1;fillColor=#b1ddf0;strokeColor=#10739e;" vertex="1" parent="1">
          <mxGeometry x="100" y="190" width="550" height="100" as="geometry" />
        </mxCell>
        <mxCell id="LMJ_T7MVuSHcezSXWlQS-17" value="角度优化" style="rounded=1;whiteSpace=wrap;html=1;" vertex="1" parent="1">
          <mxGeometry x="160" y="210" width="120" height="60" as="geometry" />
        </mxCell>
        <mxCell id="LMJ_T7MVuSHcezSXWlQS-18" value="网络传输" style="rounded=1;whiteSpace=wrap;html=1;" vertex="1" parent="1">
          <mxGeometry x="440" y="210" width="120" height="60" as="geometry" />
        </mxCell>
        <mxCell id="LMJ_T7MVuSHcezSXWlQS-19" value="&lt;font style=&quot;font-size: 15px&quot;&gt;基础功能层&lt;/font&gt;" style="text;html=1;strokeColor=none;fillColor=none;align=center;verticalAlign=middle;whiteSpace=wrap;rounded=0;" vertex="1" parent="1">
          <mxGeometry x="660" y="210" width="80" height="60" as="geometry" />
        </mxCell>
        <mxCell id="LMJ_T7MVuSHcezSXWlQS-23" value="机械手控制" style="rounded=1;whiteSpace=wrap;html=1;" vertex="1" parent="1">
          <mxGeometry x="160" y="340" width="120" height="60" as="geometry" />
        </mxCell>
        <mxCell id="LMJ_T7MVuSHcezSXWlQS-25" value="&lt;font style=&quot;font-size: 15px&quot;&gt;硬件控制层&lt;/font&gt;" style="text;html=1;strokeColor=none;fillColor=none;align=center;verticalAlign=middle;whiteSpace=wrap;rounded=0;" vertex="1" parent="1">
          <mxGeometry x="660" y="340" width="80" height="60" as="geometry" />
        </mxCell>
        <mxCell id="LMJ_T7MVuSHcezSXWlQS-30" value="" style="rounded=1;whiteSpace=wrap;html=1;fillColor=#b1ddf0;strokeColor=#10739e;" vertex="1" parent="1">
          <mxGeometry x="100" y="450" width="550" height="100" as="geometry" />
        </mxCell>
        <mxCell id="LMJ_T7MVuSHcezSXWlQS-31" value="机械手" style="rounded=1;whiteSpace=wrap;html=1;" vertex="1" parent="1">
          <mxGeometry x="160" y="470" width="120" height="60" as="geometry" />
        </mxCell>
        <mxCell id="LMJ_T7MVuSHcezSXWlQS-32" value="深度相机" style="rounded=1;whiteSpace=wrap;html=1;" vertex="1" parent="1">
          <mxGeometry x="440" y="470" width="120" height="60" as="geometry" />
        </mxCell>
        <mxCell id="LMJ_T7MVuSHcezSXWlQS-33" value="&lt;font style=&quot;font-size: 15px&quot;&gt;硬件层&lt;/font&gt;" style="text;html=1;strokeColor=none;fillColor=none;align=center;verticalAlign=middle;whiteSpace=wrap;rounded=0;" vertex="1" parent="1">
          <mxGeometry x="660" y="470" width="80" height="60" as="geometry" />
        </mxCell>
      </root>
    </mxGraphModel>
  </diagram>
</mxfile>
